<svg xmlns="http://www.w3.org/2000/svg" width="20.311" height="20.314" viewBox="0 0 20.311 20.314"><g transform="translate(0)"><path d="M20.707,5.973a7.423,7.423,0,0,0-.472-2.464A5.2,5.2,0,0,0,17.263.536,7.442,7.442,0,0,0,14.8.064C13.711.012,13.366,0,10.608,0S7.5.012,6.421.06A7.425,7.425,0,0,0,3.957.532a4.957,4.957,0,0,0-1.8,1.175A5,5,0,0,0,.984,3.5,7.443,7.443,0,0,0,.512,5.969C.46,7.056.449,7.4.449,10.159s.012,3.1.06,4.187A7.423,7.423,0,0,0,.98,16.81a5.2,5.2,0,0,0,2.972,2.972,7.443,7.443,0,0,0,2.464.472c1.083.048,1.429.06,4.187.06s3.1-.012,4.187-.06a7.421,7.421,0,0,0,2.464-.472,5.2,5.2,0,0,0,2.972-2.972,7.448,7.448,0,0,0,.472-2.464c.048-1.083.06-1.429.06-4.187s0-3.1-.052-4.187Zm-1.829,8.294a5.568,5.568,0,0,1-.349,1.885A3.37,3.37,0,0,1,16.6,18.08a5.588,5.588,0,0,1-1.885.349c-1.071.048-1.393.06-4.1.06s-3.036-.012-4.1-.06a5.565,5.565,0,0,1-1.885-.349,3.126,3.126,0,0,1-1.167-.758A3.158,3.158,0,0,1,2.7,16.156a5.589,5.589,0,0,1-.349-1.885c-.048-1.071-.06-1.393-.06-4.1s.012-3.036.06-4.1A5.565,5.565,0,0,1,2.7,4.179a3.088,3.088,0,0,1,.762-1.167,3.153,3.153,0,0,1,1.167-.758A5.592,5.592,0,0,1,6.512,1.9c1.071-.048,1.393-.06,4.1-.06s3.036.012,4.1.06a5.568,5.568,0,0,1,1.885.349,3.124,3.124,0,0,1,1.167.758,3.158,3.158,0,0,1,.758,1.167,5.591,5.591,0,0,1,.349,1.885c.048,1.071.06,1.393.06,4.1s-.012,3.028-.06,4.1Zm0,0" transform="translate(-0.449 0)" fill="#b7b7b7"/><path d="M130.168,124.5a5.219,5.219,0,1,0,5.219,5.218A5.22,5.22,0,0,0,130.168,124.5Zm0,8.6a3.385,3.385,0,1,1,3.385-3.385A3.386,3.386,0,0,1,130.168,133.1Zm0,0" transform="translate(-120.008 -119.559)" fill="#b7b7b7"/><path d="M364.886,89.82a1.218,1.218,0,1,1-1.218-1.218A1.218,1.218,0,0,1,364.886,89.82Zm0,0" transform="translate(-348.084 -85.086)" fill="#b7b7b7"/></g></svg>