<svg xmlns="http://www.w3.org/2000/svg" width="22.111" height="18.707" viewBox="0 0 22.111 18.707"><path d="M21.769.512A1.435,1.435,0,0,0,20.63,0a2.235,2.235,0,0,0-.8.158L1.119,7.3C.125,7.682-.008,8.251,0,8.556s.174.866,1.188,1.188l.018.005,3.882,1.111,2.1,6a1.812,1.812,0,0,0,1.677,1.327,1.985,1.985,0,0,0,1.342-.572l2.4-2.211,3.483,2.8h0l.033.027.009.007a2.011,2.011,0,0,0,1.223.459h0a1.716,1.716,0,0,0,1.636-1.521L22.06,2.044A1.809,1.809,0,0,0,21.769.512ZM6.387,10.65l7.49-3.826L9.213,11.779a.647.647,0,0,0-.157.289l-.9,3.643ZM9.33,16.667c-.031.029-.062.054-.093.077l.834-3.379,1.518,1.222ZM20.791,1.786,17.724,16.929c-.03.145-.124.482-.366.482a.755.755,0,0,1-.424-.184L12.987,14.05h0l-2.348-1.891,6.745-7.167a.648.648,0,0,0-.766-1.021L5.522,9.637,1.587,8.511,20.3,1.369A.95.95,0,0,1,20.63,1.3c.04,0,.11,0,.136.037a.618.618,0,0,1,.024.454Zm0,0" transform="translate(0)" fill="#b7b7b7"/></svg>